<svg xmlns="http://www.w3.org/2000/svg" width="180" height="180" viewBox="0 0 180 180" fill="none">
  <rect width="180" height="180" rx="20" fill="#1e40af"/>
  <path d="M90 45C76.19 45 62 58.19 62 72V108C62 121.81 76.19 135 90 135C103.81 135 118 121.81 118 108V72C118 58.19 103.81 45 90 45ZM90 57C97.73 57 106 65.27 106 72V108C106 115.73 97.73 124 90 124C82.27 124 74 115.73 74 108V72C74 65.27 82.27 57 90 57Z" fill="white"/>
  <circle cx="90" cy="90" r="10" fill="white"/>
  <path d="M45 90L66 69L66 79L90 79L90 101L66 101L66 111L45 90Z" fill="#fbbf24"/>
  <path d="M135 90L114 111L114 101L90 101L90 79L114 79L114 69L135 90Z" fill="#fbbf24"/>
</svg>
