<svg xmlns="http://www.w3.org/2000/svg" width="192" height="192" viewBox="0 0 192 192" fill="none">
  <rect width="192" height="192" rx="24" fill="#1e40af"/>
  <path d="M96 48C79.43 48 66 61.43 66 78V114C66 130.57 79.43 144 96 144C112.57 144 126 130.57 126 114V78C126 61.43 112.57 48 96 48ZM96 60C106.49 60 114 67.51 114 78V114C114 124.49 106.49 132 96 132C85.51 132 78 124.49 78 114V78C78 67.51 85.51 60 96 60Z" fill="white"/>
  <circle cx="96" cy="96" r="12" fill="white"/>
  <path d="M48 96L72 72L72 84L96 84L96 108L72 108L72 120L48 96Z" fill="#fbbf24"/>
  <path d="M144 96L120 120L120 108L96 108L96 84L120 84L120 72L144 96Z" fill="#fbbf24"/>
</svg>
