<svg xmlns="http://www.w3.org/2000/svg" width="512" height="512" viewBox="0 0 512 512" fill="none">
  <rect width="512" height="512" rx="64" fill="#1e40af"/>
  <path d="M256 128C213.49 128 176 165.49 176 208V304C176 346.51 213.49 384 256 384C298.51 384 336 346.51 336 304V208C336 165.49 298.51 128 256 128ZM256 160C281.41 160 304 182.59 304 208V304C304 329.41 281.41 352 256 352C230.59 352 208 329.41 208 304V208C208 182.59 230.59 160 256 160Z" fill="white"/>
  <circle cx="256" cy="256" r="32" fill="white"/>
  <path d="M128 256L192 192L192 224L256 224L256 288L192 288L192 320L128 256Z" fill="#fbbf24"/>
  <path d="M384 256L320 320L320 288L256 288L256 224L320 224L320 192L384 256Z" fill="#fbbf24"/>
</svg>
